<svg xmlns="http://www.w3.org/2000/svg" xmlns:xlink="http://www.w3.org/1999/xlink" width="1080" zoomAndPan="magnify" viewBox="0 0 810 218.249992" height="291" preserveAspectRatio="xMidYMid meet" version="1.0"><defs><g/><clipPath id="fddbe1d19f"><path d="M 1.386719 0 L 808.613281 0 L 808.613281 217.503906 L 1.386719 217.503906 Z M 1.386719 0 " clip-rule="nonzero"/></clipPath><clipPath id="19a701c906"><path d="M 57.78125 68.304688 L 142.941406 68.304688 L 142.941406 145.644531 L 57.78125 145.644531 Z M 57.78125 68.304688 " clip-rule="nonzero"/></clipPath><clipPath id="c49de01012"><path d="M 0.78125 0.304688 L 85.941406 0.304688 L 85.941406 77.644531 L 0.78125 77.644531 Z M 0.78125 0.304688 " clip-rule="nonzero"/></clipPath><clipPath id="91b300d956"><rect x="0" width="86" y="0" height="78"/></clipPath><clipPath id="2b9076272c"><path d="M 66.054688 82.207031 L 138.1875 82.207031 L 138.1875 147.457031 L 66.054688 147.457031 Z M 66.054688 82.207031 " clip-rule="nonzero"/></clipPath><clipPath id="bc0331ffe4"><path d="M 137.132812 95.996094 C 134.859375 88.285156 127.53125 82.207031 118.863281 82.207031 C 111.589844 82.207031 105.265625 86.3125 102.070312 92.34375 C 98.875 86.3125 92.554688 82.207031 85.277344 82.207031 C 76.214844 82.207031 68.285156 88.285156 66.726562 97.109375 C 62.78125 119.476562 87.800781 136.988281 102.128906 147.457031 C 115.375 137.777344 143.621094 118.039062 137.132812 95.996094 Z M 137.132812 95.996094 " clip-rule="nonzero"/></clipPath><clipPath id="fb3d8d6f16"><path d="M 0.203125 0.207031 L 72.1875 0.207031 L 72.1875 65.457031 L 0.203125 65.457031 Z M 0.203125 0.207031 " clip-rule="nonzero"/></clipPath><clipPath id="7c7eb5cc8b"><path d="M 71.132812 13.996094 C 68.859375 6.285156 61.53125 0.207031 52.863281 0.207031 C 45.589844 0.207031 39.265625 4.3125 36.070312 10.34375 C 32.875 4.3125 26.554688 0.207031 19.277344 0.207031 C 10.214844 0.207031 2.285156 6.285156 0.726562 15.109375 C -3.21875 37.476562 21.800781 54.988281 36.128906 65.457031 C 49.375 55.777344 77.621094 36.039062 71.132812 13.996094 Z M 71.132812 13.996094 " clip-rule="nonzero"/></clipPath><clipPath id="aa5f78ac1e"><rect x="0" width="73" y="0" height="66"/></clipPath></defs><g clip-path="url(#fddbe1d19f)"><path fill="#ffffff" d="M 1.386719 0 L 808.613281 0 L 808.613281 217.503906 L 1.386719 217.503906 Z M 1.386719 0 " fill-opacity="1" fill-rule="nonzero"/><path fill="#ffffff" d="M 1.386719 0 L 808.613281 0 L 808.613281 217.503906 L 1.386719 217.503906 Z M 1.386719 0 " fill-opacity="1" fill-rule="nonzero"/></g><g fill="#0f2c54" fill-opacity="1"><g transform="translate(220.467242, 127.208161)"><g><path d="M 4.3125 -29.015625 C 4.3125 -48.710938 14.347656 -58.5625 34.421875 -58.5625 C 44.316406 -58.5625 51.796875 -56.0625 56.859375 -51.0625 C 61.929688 -46.070312 64.46875 -38.722656 64.46875 -29.015625 C 64.46875 -14.710938 59.085938 -5.5 48.328125 -1.375 L 50.484375 1.25 C 54.710938 6.550781 58.335938 9.203125 61.359375 9.203125 C 62.859375 9.203125 64.039062 9.085938 64.90625 8.859375 L 64.90625 12.5625 C 64.300781 12.851562 62.894531 13.222656 60.6875 13.671875 C 58.488281 14.117188 56.5 14.34375 54.71875 14.34375 C 52.613281 14.34375 50.75 14.144531 49.125 13.75 C 47.5 13.363281 45.984375 12.757812 44.578125 11.9375 C 43.179688 11.113281 41.8125 10.03125 40.46875 8.6875 C 39.132812 7.351562 36.941406 4.742188 33.890625 0.859375 C 24.304688 0.804688 16.976562 -1.757812 11.90625 -6.84375 C 6.84375 -11.925781 4.3125 -19.316406 4.3125 -29.015625 Z M 18.65625 -29.015625 C 18.65625 -19.835938 19.914062 -13.28125 22.4375 -9.34375 C 24.957031 -5.414062 28.953125 -3.453125 34.421875 -3.453125 C 39.859375 -3.453125 43.835938 -5.421875 46.359375 -9.359375 C 48.878906 -13.304688 50.140625 -19.859375 50.140625 -29.015625 C 50.140625 -38.140625 48.878906 -44.613281 46.359375 -48.4375 C 43.835938 -52.269531 39.859375 -54.1875 34.421875 -54.1875 C 28.953125 -54.1875 24.957031 -52.269531 22.4375 -48.4375 C 19.914062 -44.613281 18.65625 -38.140625 18.65625 -29.015625 Z M 18.65625 -29.015625 "/></g></g></g><g fill="#0f2c54" fill-opacity="1"><g transform="translate(287.559455, 127.208161)"><g><path d="M 30.4375 -3.546875 L 27.5 -2.03125 C 23.476562 0.0390625 19.851562 1.078125 16.625 1.078125 C 9.132812 1.078125 5.390625 -2.90625 5.390625 -10.875 L 5.390625 -36.703125 L 1.34375 -37.734375 L 1.34375 -40.59375 L 17.875 -40.59375 L 17.875 -12.5625 C 17.875 -10.144531 18.382812 -8.257812 19.40625 -6.90625 C 20.425781 -5.550781 21.890625 -4.875 23.796875 -4.875 C 25.984375 -4.875 28.171875 -5.363281 30.359375 -6.34375 L 30.359375 -36.703125 L 26.640625 -37.734375 L 26.640625 -40.59375 L 42.84375 -40.59375 L 42.84375 -3.890625 L 46.8125 -2.84375 L 46.8125 0 L 31.046875 0 Z M 30.4375 -3.546875 "/></g></g></g><g fill="#0f2c54" fill-opacity="1"><g transform="translate(335.045839, 127.208161)"><g><path d="M 18.828125 -3.890625 L 23.28125 -2.84375 L 23.28125 0 L 1.9375 0 L 1.9375 -2.84375 L 6.34375 -3.890625 L 6.34375 -36.703125 L 2.203125 -37.734375 L 2.203125 -40.59375 L 18.828125 -40.59375 Z M 5.921875 -54.75 C 5.921875 -56.625 6.570312 -58.191406 7.875 -59.453125 C 9.1875 -60.722656 10.75 -61.359375 12.5625 -61.359375 C 14.40625 -61.359375 15.96875 -60.71875 17.25 -59.4375 C 18.53125 -58.15625 19.171875 -56.59375 19.171875 -54.75 C 19.171875 -52.9375 18.535156 -51.375 17.265625 -50.0625 C 16.003906 -48.757812 14.4375 -48.109375 12.5625 -48.109375 C 10.71875 -48.109375 9.148438 -48.75 7.859375 -50.03125 C 6.566406 -51.3125 5.921875 -52.882812 5.921875 -54.75 Z M 5.921875 -54.75 "/></g></g></g><g fill="#0f2c54" fill-opacity="1"><g transform="translate(357.916972, 127.208161)"><g><path d="M 21.328125 -41.578125 C 26.828125 -41.578125 30.804688 -40.109375 33.265625 -37.171875 C 35.734375 -34.242188 36.96875 -29.679688 36.96875 -23.484375 L 36.96875 -19.953125 L 15.671875 -19.953125 L 15.671875 -19.265625 C 15.671875 -14.972656 16.015625 -11.921875 16.703125 -10.109375 C 17.398438 -8.296875 18.523438 -6.910156 20.078125 -5.953125 C 21.628906 -5.003906 23.757812 -4.53125 26.46875 -4.53125 C 29 -4.53125 32.195312 -4.945312 36.0625 -5.78125 L 36.0625 -2.46875 C 34.476562 -1.507812 32.425781 -0.71875 29.90625 -0.09375 C 27.382812 0.519531 24.929688 0.828125 22.546875 0.828125 C 15.890625 0.828125 10.96875 -0.90625 7.78125 -4.375 C 4.601562 -7.851562 3.015625 -13.234375 3.015625 -20.515625 C 3.015625 -27.597656 4.535156 -32.878906 7.578125 -36.359375 C 10.617188 -39.835938 15.203125 -41.578125 21.328125 -41.578125 Z M 20.859375 -37.21875 C 19.128906 -37.21875 17.835938 -36.28125 16.984375 -34.40625 C 16.140625 -32.539062 15.71875 -29.234375 15.71875 -24.484375 L 25.125 -24.484375 C 25.125 -28.335938 24.992188 -31.050781 24.734375 -32.625 C 24.484375 -34.195312 24.046875 -35.351562 23.421875 -36.09375 C 22.804688 -36.84375 21.953125 -37.21875 20.859375 -37.21875 Z M 20.859375 -37.21875 "/></g></g></g><g fill="#0f2c54" fill-opacity="1"><g transform="translate(395.470886, 127.208161)"><g><path d="M 18.90625 0.859375 C 15.019531 0.859375 12.019531 -0.015625 9.90625 -1.765625 C 7.789062 -3.523438 6.734375 -6.0625 6.734375 -9.375 L 6.734375 -36.09375 L 1.421875 -36.09375 L 1.421875 -38.90625 L 7.6875 -40.59375 L 12.734375 -49.796875 L 19.21875 -49.796875 L 19.21875 -40.59375 L 27.765625 -40.59375 L 27.765625 -36.09375 L 19.21875 -36.09375 L 19.21875 -10.140625 C 19.21875 -8.273438 19.601562 -6.863281 20.375 -5.90625 C 21.15625 -4.957031 22.179688 -4.484375 23.453125 -4.484375 C 24.972656 -4.484375 26.84375 -4.71875 29.0625 -5.1875 L 29.0625 -1.515625 C 28.195312 -0.910156 26.71875 -0.363281 24.625 0.125 C 22.539062 0.613281 20.632812 0.859375 18.90625 0.859375 Z M 18.90625 0.859375 "/></g></g></g><g fill="#0f2c54" fill-opacity="1"><g transform="translate(423.22189, 127.208161)"><g/></g></g><g fill="#0f2c54" fill-opacity="1"><g transform="translate(443.631481, 127.208161)"><g><path d="M 31.484375 -54.75 L 22.546875 -53.625 L 22.546875 -4.578125 L 34.328125 -4.578125 C 40.460938 -4.578125 44.96875 -4.863281 47.84375 -5.4375 L 51.390625 -17.484375 L 55.28125 -17.484375 L 53.625 0 L 1.515625 0 L 1.515625 -3.15625 L 8.9375 -4.3125 L 8.9375 -53.625 L 1.546875 -54.75 L 1.546875 -57.90625 L 31.484375 -57.90625 Z M 31.484375 -54.75 "/></g></g></g><g fill="#0f2c54" fill-opacity="1"><g transform="translate(500.920774, 127.208161)"><g><path d="M 21.328125 -41.578125 C 26.828125 -41.578125 30.804688 -40.109375 33.265625 -37.171875 C 35.734375 -34.242188 36.96875 -29.679688 36.96875 -23.484375 L 36.96875 -19.953125 L 15.671875 -19.953125 L 15.671875 -19.265625 C 15.671875 -14.972656 16.015625 -11.921875 16.703125 -10.109375 C 17.398438 -8.296875 18.523438 -6.910156 20.078125 -5.953125 C 21.628906 -5.003906 23.757812 -4.53125 26.46875 -4.53125 C 29 -4.53125 32.195312 -4.945312 36.0625 -5.78125 L 36.0625 -2.46875 C 34.476562 -1.507812 32.425781 -0.71875 29.90625 -0.09375 C 27.382812 0.519531 24.929688 0.828125 22.546875 0.828125 C 15.890625 0.828125 10.96875 -0.90625 7.78125 -4.375 C 4.601562 -7.851562 3.015625 -13.234375 3.015625 -20.515625 C 3.015625 -27.597656 4.535156 -32.878906 7.578125 -36.359375 C 10.617188 -39.835938 15.203125 -41.578125 21.328125 -41.578125 Z M 20.859375 -37.21875 C 19.128906 -37.21875 17.835938 -36.28125 16.984375 -34.40625 C 16.140625 -32.539062 15.71875 -29.234375 15.71875 -24.484375 L 25.125 -24.484375 C 25.125 -28.335938 24.992188 -31.050781 24.734375 -32.625 C 24.484375 -34.195312 24.046875 -35.351562 23.421875 -36.09375 C 22.804688 -36.84375 21.953125 -37.21875 20.859375 -37.21875 Z M 20.859375 -37.21875 "/></g></g></g><g fill="#0f2c54" fill-opacity="1"><g transform="translate(538.474688, 127.208161)"><g><path d="M 11.09375 -14.984375 C 5.96875 -17.140625 3.40625 -21.359375 3.40625 -27.640625 C 3.40625 -32.128906 4.972656 -35.585938 8.109375 -38.015625 C 11.253906 -40.453125 15.75 -41.671875 21.59375 -41.671875 C 22.832031 -41.671875 24.421875 -41.5625 26.359375 -41.34375 C 28.304688 -41.125 29.722656 -40.875 30.609375 -40.59375 L 40.328125 -45.390625 L 41.84375 -43.53125 L 36.921875 -36.53125 C 38.703125 -34.34375 39.59375 -31.378906 39.59375 -27.640625 C 39.59375 -23.054688 38.046875 -19.535156 34.953125 -17.078125 C 31.859375 -14.617188 27.347656 -13.390625 21.421875 -13.390625 C 19.140625 -13.390625 16.9375 -13.5625 14.8125 -13.90625 L 13.78125 -10.625 C 13.832031 -9.789062 14.363281 -9.003906 15.375 -8.265625 C 16.382812 -7.535156 17.625 -7.171875 19.09375 -7.171875 L 28.546875 -7.171875 C 38.421875 -7.171875 43.359375 -3.367188 43.359375 4.234375 C 43.359375 7.367188 42.5 10.066406 40.78125 12.328125 C 39.070312 14.585938 36.550781 16.347656 33.21875 17.609375 C 29.894531 18.878906 25.757812 19.515625 20.8125 19.515625 C 14.9375 19.515625 10.382812 18.671875 7.15625 16.984375 C 3.9375 15.304688 2.328125 13 2.328125 10.0625 C 2.328125 8.769531 2.851562 7.515625 3.90625 6.296875 C 4.957031 5.085938 6.992188 3.609375 10.015625 1.859375 C 8.316406 1.191406 6.867188 0.0390625 5.671875 -1.59375 C 4.484375 -3.238281 3.890625 -4.96875 3.890625 -6.78125 Z M 33.890625 7.171875 C 33.890625 4.429688 32.0625 3.0625 28.40625 3.0625 L 14.71875 3.0625 C 12.1875 4.90625 10.921875 6.992188 10.921875 9.328125 C 10.921875 11.171875 11.804688 12.550781 13.578125 13.46875 C 15.347656 14.394531 17.773438 14.859375 20.859375 14.859375 C 25.035156 14.859375 28.25 14.179688 30.5 12.828125 C 32.757812 11.472656 33.890625 9.585938 33.890625 7.171875 Z M 21.328125 -17.703125 C 23.460938 -17.703125 25.003906 -18.53125 25.953125 -20.1875 C 26.898438 -21.84375 27.375 -24.328125 27.375 -27.640625 C 27.375 -30.953125 26.90625 -33.390625 25.96875 -34.953125 C 25.039062 -36.523438 23.492188 -37.3125 21.328125 -37.3125 C 19.347656 -37.3125 17.898438 -36.523438 16.984375 -34.953125 C 16.078125 -33.390625 15.625 -30.953125 15.625 -27.640625 C 15.625 -24.328125 16.070312 -21.84375 16.96875 -20.1875 C 17.863281 -18.53125 19.316406 -17.703125 21.328125 -17.703125 Z M 21.328125 -17.703125 "/></g></g></g><g fill="#0f2c54" fill-opacity="1"><g transform="translate(580.994843, 127.208161)"><g><path d="M 23.578125 -41.5 C 33.742188 -41.5 38.828125 -37.753906 38.828125 -30.265625 L 38.828125 -3.890625 L 42.875 -2.84375 L 42.875 0 L 27.9375 0 L 26.984375 -3.109375 C 24.742188 -1.585938 22.71875 -0.546875 20.90625 0.015625 C 19.09375 0.578125 17.265625 0.859375 15.421875 0.859375 C 7.035156 0.859375 2.84375 -3.171875 2.84375 -11.234375 C 2.84375 -14.285156 3.460938 -16.722656 4.703125 -18.546875 C 5.941406 -20.367188 7.726562 -21.71875 10.0625 -22.59375 C 12.394531 -23.476562 16.066406 -23.976562 21.078125 -24.09375 L 26.34375 -24.21875 L 26.34375 -30.140625 C 26.34375 -35.035156 24.34375 -37.484375 20.34375 -37.484375 C 17.925781 -37.484375 15.21875 -36.734375 12.21875 -35.234375 L 10.578125 -30.1875 L 7.734375 -30.1875 L 7.734375 -39.984375 C 12.078125 -40.648438 15.269531 -41.066406 17.3125 -41.234375 C 19.351562 -41.410156 21.441406 -41.5 23.578125 -41.5 Z M 26.34375 -20.375 L 22.71875 -20.25 C 19.925781 -20.132812 17.988281 -19.398438 16.90625 -18.046875 C 15.820312 -16.691406 15.28125 -14.503906 15.28125 -11.484375 C 15.28125 -9.035156 15.710938 -7.234375 16.578125 -6.078125 C 17.441406 -4.929688 18.566406 -4.359375 19.953125 -4.359375 C 21.910156 -4.359375 24.039062 -4.863281 26.34375 -5.875 Z M 26.34375 -20.375 "/></g></g></g><g fill="#0f2c54" fill-opacity="1"><g transform="translate(623.514997, 127.208161)"><g><path d="M 37.046875 -2.46875 C 35.753906 -1.425781 33.960938 -0.613281 31.671875 -0.03125 C 29.378906 0.539062 27.023438 0.828125 24.609375 0.828125 C 17.390625 0.828125 11.984375 -0.910156 8.390625 -4.390625 C 4.804688 -7.878906 3.015625 -13.207031 3.015625 -20.375 C 3.015625 -24.84375 3.828125 -28.664062 5.453125 -31.84375 C 7.085938 -35.03125 9.414062 -37.460938 12.4375 -39.140625 C 15.457031 -40.828125 18.96875 -41.671875 22.96875 -41.671875 C 27 -41.671875 31.390625 -41.164062 36.140625 -40.15625 L 36.140625 -28.15625 L 33.03125 -28.15625 L 31.21875 -35.28125 C 30.238281 -36 29.273438 -36.5 28.328125 -36.78125 C 27.378906 -37.070312 26.128906 -37.21875 24.578125 -37.21875 C 22.867188 -37.21875 21.320312 -36.539062 19.9375 -35.1875 C 18.5625 -33.84375 17.492188 -31.9375 16.734375 -29.46875 C 15.972656 -27.007812 15.59375 -24.066406 15.59375 -20.640625 C 15.59375 -14.859375 16.488281 -10.726562 18.28125 -8.25 C 20.082031 -5.769531 22.941406 -4.53125 26.859375 -4.53125 C 30.828125 -4.53125 34.222656 -4.945312 37.046875 -5.78125 Z M 37.046875 -2.46875 "/></g></g></g><g fill="#0f2c54" fill-opacity="1"><g transform="translate(661.068865, 127.208161)"><g><path d="M 19.953125 1.25 L 3.71875 -36.703125 L 0.859375 -37.734375 L 0.859375 -40.59375 L 21.640625 -40.59375 L 21.640625 -37.734375 L 16.796875 -36.625 L 26.34375 -14.15625 L 34.84375 -36.703125 L 30.09375 -37.734375 L 30.09375 -40.59375 L 43.359375 -40.59375 L 43.359375 -37.734375 L 40.421875 -36.875 L 24.390625 2.546875 C 22.554688 7.242188 20.945312 10.648438 19.5625 12.765625 C 18.175781 14.878906 16.640625 16.460938 14.953125 17.515625 C 13.273438 18.566406 11.359375 19.09375 9.203125 19.09375 C 6.867188 19.09375 4.492188 18.816406 2.078125 18.265625 L 2.078125 7.8125 L 4.65625 7.8125 L 6.515625 13.25 C 7.347656 13.914062 8.414062 14.25 9.71875 14.25 C 10.8125 14.25 11.773438 13.988281 12.609375 13.46875 C 13.441406 12.957031 14.222656 12.210938 14.953125 11.234375 C 15.691406 10.253906 16.390625 9.050781 17.046875 7.625 C 17.710938 6.195312 18.679688 4.070312 19.953125 1.25 Z M 19.953125 1.25 "/></g></g></g><path fill="#0f2c54" d="M 105.308594 38.984375 C 103.746094 38.089844 101.824219 38.089844 100.257812 38.984375 L 32.816406 77.523438 C 31.230469 78.429688 30.25 80.117188 30.25 81.941406 L 30.25 88.878906 C 30.25 132.546875 59.199219 170.925781 101.1875 182.921875 C 102.054688 183.171875 102.972656 183.171875 103.835938 182.921875 C 145.824219 170.925781 174.773438 132.546875 174.773438 88.878906 L 174.773438 81.941406 C 174.773438 80.117188 173.796875 78.429688 172.210938 77.523438 Z M 105.308594 38.984375 " fill-opacity="1" fill-rule="nonzero"/><path fill="#ffbf1c" d="M 102.511719 69.332031 L 113.925781 91.988281 L 139.445312 95.664062 L 120.980469 113.433594 L 125.335938 138.703125 L 102.511719 126.921875 L 79.6875 138.703125 L 84.046875 113.433594 L 65.578125 95.664062 L 91.097656 91.988281 Z M 102.511719 69.332031 " fill-opacity="1" fill-rule="nonzero"/><g clip-path="url(#19a701c906)"><g transform="matrix(1, 0, 0, 1, 57, 68)"><g clip-path="url(#91b300d956)"><g clip-path="url(#c49de01012)"><path fill="#0f2c54" d="M 0.78125 0.304688 L 85.972656 0.304688 L 85.972656 77.644531 L 0.78125 77.644531 Z M 0.78125 0.304688 " fill-opacity="1" fill-rule="nonzero"/></g></g></g></g><g clip-path="url(#2b9076272c)"><g clip-path="url(#bc0331ffe4)"><g transform="matrix(1, 0, 0, 1, 66, 82)"><g clip-path="url(#aa5f78ac1e)"><g clip-path="url(#fb3d8d6f16)"><g clip-path="url(#7c7eb5cc8b)"><path fill="#ffbf1c" d="M 0.308594 0.207031 L 72.1875 0.207031 L 72.1875 65.457031 L 0.308594 65.457031 Z M 0.308594 0.207031 " fill-opacity="1" fill-rule="nonzero"/></g></g></g></g></g></g></svg>